<svg xmlns="http://www.w3.org/2000/svg" viewBox="0 0 64 64">
  <circle cx="32" cy="32" r="32" fill="#E6ECEC"></circle>
  <path fill="#7B6C57" d="M44.6 41.2c-2.3-2.2-5.5-2.7-8.6-2.1-1.3.2-2.3.6-3.3.6-1.1 0-2.1-.4-3.3-.6-3.1-.6-6.3-.1-8.6 2.1-2.3 2.2-2.7 5.5-1.1 8.1 1.3 2.1 3.6 3.5 6.4 3.5 2 0 3.8-.7 5.1-1.9 1.3 1.2 3.1 1.9 5.1 1.9 2.8 0 5.1-1.4 6.4-3.5 1.7-2.6 1.2-5.9-1.1-8.1zM20.9 33.8c2.6 0 4.7-2.4 4.7-5.4s-2.1-5.4-4.7-5.4-4.7 2.4-4.7 5.4 2.1 5.4 4.7 5.4zm22.2 0c2.6 0 4.7-2.4 4.7-5.4s-2.1-5.4-4.7-5.4-4.7 2.4-4.7 5.4 2.1 5.4 4.7 5.4zm-11.1-8.8c2.6 0 4.7-2.4 4.7-5.4s-2.1-5.4-4.7-5.4-4.7 2.4-4.7 5.4 2.1 5.4 4.7 5.4z"></path>
</svg>
